# xmcd CD database file
#
# Track frame offsets:
#	150
#	9826
#	18848
#	28281
#	38938
#	52762
#	62552
#	73447
#	89428
#	100895
#	118453
#	143481
#	154421
#	172014
#	184350
#	200190
#	212303
#	223384
#	233362
#	240605
#	251944
#	260529
#	270706
#	285274
#	295355
#	306236
#	316396
#	331264
#	346065
#
# Disc length: 4772 seconds
#
# Revision: 0
# Processed by: cddbd v1.5.1PL0 Copyright (c) Steve Scherf et al.
# Submitted via: CDex 1.51
#
DISCID=bb12a21d
DTITLE=Johnny Cash - God (1-14) My Mother's Hymn Book (15-29)
DYEAR=1900
DGENRE=Country
TTITLE0=01-What on Earth Will you Do (For Heaven's Sake)
TTITLE1=02-My God is Real
TTITLE2=03-It Was Jesus
TTITLE3=04-Why Me Lord
TTITLE4=06-Redemption
TTITLE5=07-The Great Speckled Bird
TTITLE6=08-The Old Account
TTITLE7=10-When He Comes
TTITLE8=11-The Kneeling Drunkard's Plea
TTITLE9=12-Were you There (When They Crucified my Lord)
TTITLE10=13-Man In White
TTITLE11=14-Belshazzar
TTITLE12=15-Oh, Bury Me Not (Introduction- A Cowboy's Prayer)
TTITLE13=16-Oh Come, Angel Band
TTITLE14=01-Where We'll Never Grow Old
TTITLE15=02-I Shall Not Be Moved
TTITLE16=03-I Am A Pilgrim
TTITLE17=04-Do Lord
TTITLE18=05-When the Roll is Called Up Yonder
TTITLE19=06-If We Never Meet Again
TTITLE20=07-I'll Fly Away
TTITLE21=08-Where the Soul of Man Never Dies
TTITLE22=09-Let the Lower Lights Be Burning
TTITLE23=10-When He Reached Down
TTITLE24=11-In the Sweet By and By
TTITLE25=12-I'm Bound For the Promised Land
TTITLE26=13-In the Garden
TTITLE27=14-Softly and Tenderly
TTITLE28=15-Just As I Am
EXTD=
EXTT0=
EXTT1=
EXTT2=
EXTT3=
EXTT4=
EXTT5=
EXTT6=
EXTT7=
EXTT8=
EXTT9=
EXTT10=
EXTT11=
EXTT12=
EXTT13=
EXTT14=
EXTT15=
EXTT16=
EXTT17=
EXTT18=
EXTT19=
EXTT20=
EXTT21=
EXTT22=
EXTT23=
EXTT24=
EXTT25=
EXTT26=
EXTT27=
EXTT28=
PLAYORDER=
